HIERARCHY
ROOT Hips
{
    OFFSET 0.000 93.594 0.000
    CHANNELS 6 Xposition Yposition Zposition Yrotation Xrotation Zrotation
    JOINT RightHip
    {
        OFFSET -9.500 -1.594 0.000
        CHANNELS 3 Yrotation Xrotation Zrotation
        JOINT RightKnee
        {
            OFFSET 0.000 -42.000 0.000
            CHANNELS 3 Yrotation Xrotation Zrotation
            JOINT RightAnkle
            {
                OFFSET 0.000 -42.000 0.000
                CHANNELS 3 Yrotation Xrotation Zrotation
                End Site
                {
                    OFFSET 0.000 -8.000 17.500
                }
            }
        }
    }
    JOINT LeftHip
    {
        OFFSET 9.500 -1.594 0.000
        CHANNELS 3 Yrotation Xrotation Zrotation
        JOINT LeftKnee
        {
            OFFSET 0.000 -42.000 0.000
            CHANNELS 3 Yrotation Xrotation Zrotation
            JOINT LeftAnkle
            {
                OFFSET 0.000 -42.000 0.000
                CHANNELS 3 Yrotation Xrotation Zrotation
                End Site
                {
                    OFFSET 0.000 -8.000 17.500
                }
            }
        }
    }
    JOINT Chest
    {
        OFFSET 0.000 14.348 0.000
        CHANNELS 3 Yrotation Xrotation Zrotation
        JOINT Chest2
        {
            OFFSET 0.000 9.746 0.000
            CHANNELS 3 Yrotation Xrotation Zrotation
            JOINT Chest3
            {
                OFFSET 0.000 10.149 0.000
                CHANNELS 3 Yrotation Xrotation Zrotation
                JOINT Chest4
                {
                    OFFSET 0.000 9.746 0.000
                    CHANNELS 3 Yrotation Xrotation Zrotation
                    JOINT Neck
                    {
                        OFFSET 0.000 10.417 0.000
                        CHANNELS 3 Yrotation Xrotation Zrotation
                        JOINT Head
                        {
                            OFFSET 0.000 9.000 0.000
                            CHANNELS 3 Yrotation Xrotation Zrotation
                            End Site
                            {
                                OFFSET 0.000 16.000 0.000
                            }
                        }
                    }
                    JOINT RightCollar
                    {
                        OFFSET -3.200 6.945 0.000
                        CHANNELS 3 Yrotation Xrotation Zrotation
                        JOINT RightShoulder
                        {
                            OFFSET -12.800 0.000 0.000
                            CHANNELS 3 Yrotation Xrotation Zrotation
                            JOINT RightElbow
                            {
OFFSET -0 -27 0.000
						CHANNELS 3 Xrotation Yrotation Zrotation
                                JOINT RightWrist
                                {
OFFSET -0 -26 0.000
						CHANNELS 3 Xrotation Yrotation Zrotation
                                    JOINT RightFinger0
                                    {
OFFSET -0.196 -2.56 3.210
						CHANNELS 3 Xrotation Yrotation Zrotation
                                        JOINT RightFinger01
                                        {
OFFSET -0 -3.788 0.000
						CHANNELS 3 Xrotation Yrotation Zrotation
                                            JOINT RightFinger0Nub
                                            {
OFFSET -0 -2.631 0.000
						CHANNELS 3 Xrotation Yrotation Zrotation
                                                End Site
                                                {
OFFSET 0 -2.256 0
                                                }
                                            }
                                        }
                                    }
                                    JOINT RightFinger1
                                    {
OFFSET -0.523 -3.316 2.035
						CHANNELS 3 Xrotation Yrotation Zrotation
                                        JOINT RightFinger11
                                        {
OFFSET 0.094 -5.366 1.028
						CHANNELS 3 Xrotation Yrotation Zrotation
                                            JOINT RightFinger12
                                            {
OFFSET -0 -3.723 0.000
						CHANNELS 3 Xrotation Yrotation Zrotation
                                                JOINT RightFinger1Nub
                                                {
OFFSET -0 -2.111 0.000
						CHANNELS 3 Xrotation Yrotation Zrotation
                                                    End Site
                                                    {
OFFSET 0 -1.857 0
                                                    }
                                                }
                                            }
                                        }
                                    }
                                    JOINT RightFinger2
                                    {
OFFSET -0.532 -3.479 0.778
						CHANNELS 3 Xrotation Yrotation Zrotation
                                        JOINT RightFinger21
                                        {
OFFSET 0.086 -5.322 0.323
						CHANNELS 3 Xrotation Yrotation Zrotation
                                            JOINT RightFinger22
                                            {
OFFSET -0 -4.062 0.000
						CHANNELS 3 Xrotation Yrotation Zrotation
                                                JOINT RightFinger2Nub
                                                {
OFFSET -0 -2.547 0.000
						CHANNELS 3 Xrotation Yrotation Zrotation
                                                    End Site
                                                    {
OFFSET 0 -2.031 0
                                                    }
                                                }
                                            }
                                        }
                                    }
                                    JOINT RightFinger3
                                    {
OFFSET -0.553 -3.461 -0.133
						CHANNELS 3 Xrotation Yrotation Zrotation
                                        JOINT RightFinger31
                                        {
OFFSET 0.023 -4.767 -0.493
						CHANNELS 3 Xrotation Yrotation Zrotation
                                            JOINT RightFinger32
                                            {
OFFSET -0 -3.541 0.000
						CHANNELS 3 Xrotation Yrotation Zrotation
                                                JOINT RightFinger3Nub
                                                {
OFFSET -0 -2.456 0.000
						CHANNELS 3 Xrotation Yrotation Zrotation
                                                    End Site
                                                    {
OFFSET 0 -1.91 0
                                                    }
                                                }
                                            }
                                        }
                                    }
                                    JOINT RightFinger4
                                    {
OFFSET -0.483 -3.251 -1.236
						CHANNELS 3 Xrotation Yrotation Zrotation
                                        JOINT RightFinger41
                                        {
OFFSET 0.023 -4.259 -1.122
						CHANNELS 3 Xrotation Yrotation Zrotation
                                            JOINT RightFinger42
                                            {
OFFSET -0 -2.835 0.000
						CHANNELS 3 Xrotation Yrotation Zrotation
                                                JOINT RightFinger4Nub
                                                {
OFFSET -0 -1.792 0.000
						CHANNELS 3 Xrotation Yrotation Zrotation
                                                    End Site
                                                    {
OFFSET 0 -1.692 0
                                                    }
                                                }
                                            }
                                        }
                                    }
                                }
                            }
                        }
                    }
                    JOINT LeftCollar
                    {
                        OFFSET 3.200 6.945 0.000
                        CHANNELS 3 Yrotation Xrotation Zrotation
                        JOINT LeftShoulder
                        {
                            OFFSET 12.800 0.000 0.000
                            CHANNELS 3 Yrotation Xrotation Zrotation
                            JOINT LeftElbow
                            {
OFFSET -0 -27 0.000
						CHANNELS 3 Xrotation Yrotation Zrotation
                                JOINT LeftWrist
                                {
OFFSET -0 -26 0.000
						CHANNELS 3 Xrotation Yrotation Zrotation
                                    JOINT LeftFinger0
                                    {
OFFSET -0.196 -2.56 3.210
						CHANNELS 3 Xrotation Yrotation Zrotation
                                        JOINT LeftFinger01
                                        {
OFFSET -0 -3.788 0.000
						CHANNELS 3 Xrotation Yrotation Zrotation
                                            JOINT LeftFinger0Nub
                                            {
OFFSET -0 -2.631 0.000
						CHANNELS 3 Xrotation Yrotation Zrotation
                                                End Site
                                                {
OFFSET 0 -2.256 0
                                                }
                                            }
                                        }
                                    }
                                    JOINT LeftFinger1
                                    {
OFFSET -0.523 -3.316 2.035
						CHANNELS 3 Xrotation Yrotation Zrotation
                                        JOINT LeftFinger11
                                        {
OFFSET 0.094 -5.366 1.028
						CHANNELS 3 Xrotation Yrotation Zrotation
                                            JOINT LeftFinger12
                                            {
OFFSET -0 -3.723 0.000
						CHANNELS 3 Xrotation Yrotation Zrotation
                                                JOINT LeftFinger1Nub
                                                {
OFFSET -0 -2.111 0.000
						CHANNELS 3 Xrotation Yrotation Zrotation
                                                    End Site
                                                    {
OFFSET 0 -1.857 0
                                                    }
                                                }
                                            }
                                        }
                                    }
                                    JOINT LeftFinger2
                                    {
OFFSET -0.532 -3.479 0.778
						CHANNELS 3 Xrotation Yrotation Zrotation
                                        JOINT LeftFinger21
                                        {
OFFSET 0.086 -5.322 0.323
						CHANNELS 3 Xrotation Yrotation Zrotation
                                            JOINT LeftFinger22
                                            {
OFFSET -0 -4.062 0.000
						CHANNELS 3 Xrotation Yrotation Zrotation
                                                JOINT LeftFinger2Nub
                                                {
OFFSET -0 -2.547 0.000
						CHANNELS 3 Xrotation Yrotation Zrotation
                                                    End Site
                                                    {
OFFSET 0 -2.031 0
                                                    }
                                                }
                                            }
                                        }
                                    }
                                    JOINT LeftFinger3
                                    {
OFFSET -0.553 -3.461 -0.133
						CHANNELS 3 Xrotation Yrotation Zrotation
                                        JOINT LeftFinger31
                                        {
OFFSET 0.023 -4.767 -0.493
						CHANNELS 3 Xrotation Yrotation Zrotation
                                            JOINT LeftFinger32
                                            {
OFFSET -0 -3.541 0.000
						CHANNELS 3 Xrotation Yrotation Zrotation
                                                JOINT LeftFinger3Nub
                                                {
OFFSET -0 -2.456 0.000
						CHANNELS 3 Xrotation Yrotation Zrotation
                                                    End Site
                                                    {
OFFSET 0 -1.91 0
                                                    }
                                                }
                                            }
                                        }
                                    }
                                    JOINT LeftFinger4
                                    {
OFFSET -0.483 -3.251 -1.236
						CHANNELS 3 Xrotation Yrotation Zrotation
                                        JOINT LeftFinger41
                                        {
OFFSET 0.023 -4.259 -1.122
						CHANNELS 3 Xrotation Yrotation Zrotation
                                            JOINT LeftFinger42
                                            {
OFFSET -0 -2.835 0.000
						CHANNELS 3 Xrotation Yrotation Zrotation
                                                JOINT LeftFinger4Nub
                                                {
OFFSET -0 -1.792 0.000
						CHANNELS 3 Xrotation Yrotation Zrotation
                                                    End Site
                                                    {
OFFSET 0 -1.692 0
                                                    }
                                                }
                                            }
                                        }
                                    }
                                }
                            }
                        }
                    }
                }
            }
        }
    }
}
MOTION

Frames: 7
Frame Time: 0.017
-275.56 91.93 25.40 138.18 2.31 -1.45 -19.78 -11.92 6.00 0.00 32.06 -0.00 -15.41 -20.40 -2.24 -7.86 -23.14 -0.35 -0.00 34.06 -0.00 7.00 -12.86 2.91 -2.98 6.99 -2.49 -0.77 1.77 -0.59 -1.33 2.93 -0.99 -1.93 1.67 1.14 0.55 28.02 18.31 -27.24 44.77 12.19 16.78 0.10 -7.76 10.18 -12.20 -13.43 -31.68 -6.79 23.74 -23.99 7.2 11.13 -45.57 -0 13.97 19.4 -0 -15.85 25.48 -0 0.00 0 -0 0.00 -15 -0 47.26 0 -0 41.60 0 -0 20.80 0 -0 0.00 0 -0 48.01 0 -0 48.01 0 -0 48.01 0 -0 0.00 15 -0 44.13 0 -0 44.13 0 -0 44.13 0 -0 0.00 25 -0 45.99 0 -0 45.99 0 -0 45.99 -0.27 -3.23 -0.25 -0.80 -35.60 23.6 -62.02 -7 -2.55 -9.47 28.45 -9.91 -15.63 0 -34.07 -21.21 0 10.14 10.68 0 0.00 0.00 0 0.00 -15.00 0 -29.64 0.00 0 -23.14 0.00 0 -11.57 0.00 0 0.00 0.00 0 -31.68 0.00 0 -31.68 0.00 0 -31.68 0.00 0 0.00 15.00 0 -43.96 0.00 0 -43.96 0.00 0 -43.96 0.00 0 0.00 25.00 0 -38.70 0.00 0 -38.70 0.00 0 -38.70 
-274.56 91.71 25.19 138.70 0.73 -1.81 -21.10 -11.48 6.58 0.00 34.57 0.00 -14.94 -21.56 -2.77 -7.73 -21.82 0.08 -0.00 35.97 -0.00 6.33 -14.53 3.02 -2.85 7.56 -2.20 -0.73 1.91 -0.51 -1.26 3.17 -0.87 -1.96 1.65 1.13 -0.04 28.33 18.34 -27.67 45.04 11.81 16.22 -0.69 -7.41 5.70 -11.45 -13.5 -33.36 -5.01 25.72 -23.76 7.52 10.82 -44.97 -0 14.82 20.61 -0 -15.00 23.45 -0 0.00 0 -0 0.00 -15 -0 47.37 0 -0 42.19 0 -0 21.10 0 -0 0.00 0 -0 48.72 0 -0 48.72 0 -0 48.72 0 -0 0.00 15 -0 43.88 0 -0 43.88 0 -0 43.88 0 -0 0.00 25 -0 43.21 0 -0 43.21 0 -0 43.21 -0.95 -3.33 -0.17 2.47 -37.10 23.29 -63.47 -5.96 -5.97 -11.51 29.72 -9.06 -14.18 0 -34.61 -18.32 0 9.60 9.35 0 0.00 0.00 0 0.00 -15.00 0 -30.35 0.00 0 -24.13 0.00 0 -12.07 0.00 0 0.00 0.00 0 -32.88 0.00 0 -32.88 0.00 0 -32.88 0.00 0 0.00 15.00 0 -45.02 0.00 0 -45.02 0.00 0 -45.02 0.00 0 0.00 25.00 0 -39.77 0.00 0 -39.77 0.00 0 -39.77 
-273.70 91.53 25.01 138.70 0.73 -1.81 -21.58 -12.46 7.34 -0.00 36.45 -0.00 -14.84 -22.57 -3.31 -8.14 -21.89 0.42 -0.00 37.28 0.00 6.67 -15.72 2.48 -2.85 7.56 -2.20 -0.73 1.91 -0.51 -1.26 3.17 -0.87 -1.96 1.65 1.13 -0.04 28.33 18.34 -27.67 45.04 11.81 16.22 -0.69 -7.41 5.70 -11.45 -13.5 -33.36 -5.01 25.72 -23.76 7.52 10.82 -44.97 -0 14.82 20.61 -0 -15.00 23.45 -0 0.00 0 -0 0.00 -15 -0 47.37 0 -0 42.19 0 -0 21.10 0 -0 0.00 0 -0 48.72 0 -0 48.72 0 -0 48.72 0 -0 0.00 15 -0 43.88 0 -0 43.88 0 -0 43.88 0 -0 0.00 25 -0 43.21 0 -0 43.21 0 -0 43.21 -0.95 -3.33 -0.17 2.47 -37.10 23.29 -63.47 -5.96 -5.97 -11.51 29.72 -9.06 -14.18 0 -34.61 -18.32 0 9.60 9.35 0 0.00 0.00 0 0.00 -15.00 0 -30.35 0.00 0 -24.13 0.00 0 -12.07 0.00 0 0.00 0.00 0 -32.88 0.00 0 -32.88 0.00 0 -32.88 0.00 0 0.00 15.00 0 -45.02 0.00 0 -45.02 0.00 0 -45.02 0.00 0 0.00 25.00 0 -65.48 0.00 0 -65.48 0.00 0 -65.48 
-272.93 91.40 24.83 138.70 0.73 -1.81 -22.02 -13.25 8.02 0.00 37.94 0.00 -14.73 -23.37 -3.82 -8.50 -21.87 0.72 0.00 38.31 0.00 6.96 -16.71 2.01 -2.85 7.56 -2.20 -0.73 1.91 -0.51 -1.26 3.17 -0.87 -1.96 1.65 1.13 -0.04 28.33 18.34 -27.67 45.04 11.81 16.22 -0.69 -7.41 5.70 -11.45 -13.5 -33.36 -5.01 25.72 -23.76 7.52 10.82 -44.97 -0 14.82 20.61 -0 -15.00 23.45 -0 0.00 0 -0 0.00 -15 -0 47.37 0 -0 42.19 0 -0 21.10 0 -0 0.00 0 -0 48.72 0 -0 48.72 0 -0 48.72 0 -0 0.00 15 -0 43.88 0 -0 43.88 0 -0 43.88 0 -0 0.00 25 -0 43.21 0 -0 43.21 0 -0 43.21 -0.95 -3.33 -0.17 2.47 -37.10 23.29 -63.47 -5.96 -5.97 -11.51 29.72 -9.06 -14.18 0 -34.61 -18.32 0 9.60 9.35 0 0.00 0.00 0 0.00 -15.00 0 -30.35 0.00 0 -24.13 0.00 0 -12.07 0.00 0 0.00 0.00 0 -32.88 0.00 0 -32.88 0.00 0 -32.88 0.00 0 0.00 15.00 0 -45.02 0.00 0 -45.02 0.00 0 -45.02 0.00 0 0.00 25.00 0 -65.33 0.00 0 -65.33 0.00 0 -65.33 
-273.58 91.47 24.30 138.70 0.73 -1.81 -18.11 -13.57 6.55 -0.00 37.61 -0.00 -10.57 -23.02 -0.86 -0.12 -21.67 -0.07 -0.00 37.66 -0.00 -0.11 -16.10 2.73 -2.85 7.56 -2.20 -0.73 1.91 -0.51 -1.26 3.17 -0.87 -1.96 1.65 1.13 -0.04 28.33 18.34 -27.67 45.04 11.81 13.65 -4.48 -5.16 2.47 -13.50 -9.22 -81.96 -44.56 32.93 -18.66 8.68 21.25 -46.24 -0 19.02 18.07 -0 -10.81 88.21 -0 0.00 0 -0 0.00 -15 -0 53.71 0 -0 56.93 0 -0 28.46 0 -0 0.00 0 -0 61.20 0 -0 61.20 0 -0 61.20 0 -0 0.00 15 -0 67.07 0 -0 67.07 0 -0 67.07 0 -0 0.00 25 -0 83.28 0 -0 83.28 0 -0 83.28 -0.95 -3.33 -0.17 -11.88 -28.01 20.3 1.58 -27.11 3.11 -92.43 21.99 29.86 0.32 0 -53.31 10.69 0 -9.09 22.16 0 0.00 0.00 0 0.00 -15.00 0 -86.92 0.00 0 -27.68 0.00 0 -13.84 0.00 0 0.00 0.00 0 -62.80 0.00 0 -62.80 0.00 0 -62.80 0.00 0 0.00 15.00 0 -70.67 0.00 0 -70.67 0.00 0 -70.67 0.00 0 0.00 25.00 0 -65.35 0.00 0 -65.35 0.00 0 -65.35 
-273.79 91.73 24.10 138.70 0.73 -1.81 -17.82 -13.61 6.09 -0.00 37.12 -0.00 -10.72 -22.45 -0.44 0.17 -21.01 -0.30 -0.00 36.38 -0.00 -0.34 -15.48 3.01 -2.85 7.56 -2.20 -0.73 1.91 -0.51 -1.26 3.17 -0.87 -1.96 1.65 1.13 -0.04 28.33 18.34 -27.67 45.04 11.81 13.59 -4.47 -5.16 2.43 -13.54 -9.23 -81.91 -44.23 33.08 -18.71 8.66 21.10 -46.2 -0 18.90 18.14 -0 -10.92 87.92 -0 0.00 0 -0 0.00 -15 -0 53.54 0 -0 56.41 0 -0 28.20 0 -0 0.00 0 -0 60.78 0 -0 60.78 0 -0 60.78 0 -0 0.00 15 -0 66.34 0 -0 66.34 0 -0 66.34 0 -0 0.00 25 -0 82.60 0 -0 82.60 0 -0 82.60 -0.95 -3.33 -0.17 -11.95 -27.97 20.34 1.24 -26.84 2.95 -92.07 21.99 29.64 0.37 0 -52.43 10.79 0 -8.21 22.63 0 0.00 0.00 0 0.00 -15.00 0 -87.04 0.00 0 -27.17 0.00 0 -13.59 0.00 0 0.00 0.00 0 -62.67 0.00 0 -62.67 0.00 0 -62.67 0.00 0 0.00 15.00 0 -70.67 0.00 0 -70.67 0.00 0 -70.67 0.00 0 0.00 25.00 0 -65.35 0.00 0 -65.35 0.00 0 -65.35 
-273.97 92.07 23.91 137.86 0.71 0.66 -16.15 -14.66 3.19 0.00 37.52 -0.00 -10.92 -22.44 0.09 2.13 -19.12 -3.17 -0.00 33.03 -0.00 -0.56 -13.98 3.26 -2.35 1.61 -2.36 -0.59 0.40 -0.58 -1.00 0.65 -0.97 -2.04 1.63 0.90 -1.41 32.64 17.66 -34.34 48.22 5.25 13.42 5.59 -5.34 2.45 -13.61 -9.23 -82 -43.84 33.07 -18.74 8.63 21.00 -46.16 -0 18.77 18.22 -0 -11.05 14.01 -0 0.00 0 -0 0.00 -15 -0 53.55 0 -0 55.49 0 -0 27.75 0 -0 0.00 0 -0 60.34 0 -0 60.34 0 -0 60.34 0 -0 0.00 15 -0 65.59 0 -0 65.59 0 -0 65.59 0 -0 0.00 25 -0 81.90 0 -0 81.90 0 -0 81.90 -2.29 -1.11 -4.87 -10.58 -20.35 20.93 0.46 -26.48 2.51 -13.17 17.26 -11.77 -15.45 0 -28.43 -20.86 0 15.78 24.68 0 0.00 0.00 0 0.00 -15.00 0 -43.63 0.00 0 -26.55 0.00 0 -13.28 0.00 0 0.00 0.00 0 -32.66 0.00 0 -32.66 0.00 0 -32.66 0.00 0 0.00 15.00 0 -51.39 0.00 0 -51.39 0.00 0 -51.39 0.00 0 0.00 25.00 0 -42.21 0.00 0 -42.21 0.00 0 -42.21 
